<?xml version="1.0" encoding="UTF-8"?>
<!DOCTYPE svg PUBLIC "-//W3C//DTD SVG 1.1//EN" "http://www.w3.org/Graphics/SVG/1.1/DTD/svg11.dtd">
<!-- Creator: CorelDRAW 2018 (64 Bit Versión de evaluación) -->
<svg xmlns="http://www.w3.org/2000/svg" xml:space="preserve" width="76.9078mm" height="25.9754mm" version="1.1" style="shape-rendering:geometricPrecision; text-rendering:geometricPrecision; image-rendering:optimizeQuality; fill-rule:evenodd; clip-rule:evenodd"
viewBox="0 0 3328.52 1124.2"
 xmlns:xlink="http://www.w3.org/1999/xlink">
 <defs>
  <style type="text/css">
   <![CDATA[
    .fil1 {fill:#373435}
    .fil3 {fill:#ED3237}
    .fil0 {fill:#FEFEFE}
    .fil2 {fill:#ED3237;fill-rule:nonzero}
    .fil4 {fill:#FEFEFE;fill-rule:nonzero}
   ]]>
  </style>
 </defs>
 <g id="Capa_x0020_1">
  <metadata id="CorelCorpID_0Corel-Layer"/>
  <g id="_2649614135360">
   <rect class="fil0" y="0" width="3328.52" height="1124.2"/>
   <polygon class="fil1" points="843.28,1031.32 3228.91,1031.32 3228.91,565.64 843.28,565.64 "/>
   <path class="fil2" d="M1173.14 306.79c-11.24,-11.54 -22.6,-20.09 -34.08,-25.71 -11.54,-5.56 -23.63,-8.37 -36.28,-8.37 -21.93,0 -39.88,7.57 -53.8,22.72 -13.99,15.15 -20.95,34.63 -20.95,58.33 0,23.76 6.9,42.99 20.77,57.71 13.8,14.72 31.81,22.11 54.05,22.11 13.13,0 26.2,-2.75 39.27,-8.24 13.07,-5.5 26.08,-13.74 39.09,-24.73l-3.97 68.89c-11.11,7.51 -23.21,13.25 -36.4,17.16 -13.19,3.97 -26.87,5.92 -41.1,5.92 -15.27,0 -29.86,-2.38 -43.91,-7.15 -13.98,-4.76 -26.93,-11.85 -38.72,-21.13 -16.74,-13.13 -29.5,-29.13 -38.41,-48.07 -8.85,-18.87 -13.31,-39.51 -13.31,-61.8 0,-19.24 3.3,-37.25 9.83,-54.05 6.6,-16.79 16.12,-31.69 28.64,-44.58 12.64,-12.88 27.24,-22.72 43.85,-29.62 16.55,-6.84 34.01,-10.26 52.4,-10.26 14.59,0 28.46,2.01 41.71,6.11 13.25,4.03 25.89,10.2 37.93,18.44l-6.6 66.33zm48.31 177.35l0 -259.43 61.93 0 0 203.74 101.14 0 0 55.7 -163.06 0zm193.42 0l0 -259.43 159.77 0 0 53.5 -99.67 0 0 46.91 85.38 0 0 53.13 -85.38 0 0 51.3 101.14 0 0 54.6 -161.23 0zm264.87 -82.45l68.16 0 -33.65 -81.23 -34.51 81.23zm-97.11 82.45l132.34 -267.5 3.91 0 129.41 267.5 -64.8 0 -16.43 -37.74 -105.29 0 -16.8 37.74 -62.35 0zm285.09 0l0 -267.86 5.92 0 161.54 151.4 0 -142.97 57.16 0 0 269.33 -5.38 0 -162.09 -151.4 0 141.51 -57.16 0zm460.18 -211.8l-8.43 0 0 69.26 11.24 0c15.64,0 27.54,-2.99 35.79,-9.04 8.24,-6.05 12.34,-14.72 12.34,-26.02 0,-11.85 -4.03,-20.46 -12.15,-25.96 -8.12,-5.5 -21.07,-8.24 -38.78,-8.24zm-70.35 211.8l0 -259.43 66.75 0c20.52,0 36.83,1.46 48.85,4.46 12.03,2.99 22.72,8 32.07,15.02 9.65,7.02 17.16,15.82 22.47,26.38 5.31,10.56 7.94,21.74 7.94,33.53 0,26.26 -9.34,47.03 -28.03,62.42 -18.63,15.39 -43.97,23.09 -75.97,23.09 -3.3,0 -5.8,0 -7.51,-0.06 -1.65,-0.06 -3.24,-0.19 -4.64,-0.31l0 94.91 -61.93 0zm248.08 -82.45l68.16 0 -33.65 -81.23 -34.51 81.23zm-97.11 82.45l132.34 -267.5 3.91 0 129.41 267.5 -64.8 0 -16.43 -37.74 -105.29 0 -16.8 37.74 -62.35 0zm476.73 -177.35c-11.24,-11.54 -22.6,-20.09 -34.08,-25.71 -11.54,-5.56 -23.63,-8.37 -36.28,-8.37 -21.93,0 -39.88,7.57 -53.8,22.72 -13.99,15.15 -20.95,34.63 -20.95,58.33 0,23.76 6.9,42.99 20.77,57.71 13.8,14.72 31.81,22.11 54.05,22.11 13.13,0 26.2,-2.75 39.27,-8.24 13.07,-5.5 26.08,-13.74 39.09,-24.73l-3.97 68.89c-11.11,7.51 -23.21,13.25 -36.4,17.16 -13.19,3.97 -26.87,5.92 -41.1,5.92 -15.27,0 -29.86,-2.38 -43.91,-7.15 -13.98,-4.76 -26.93,-11.85 -38.72,-21.13 -16.74,-13.13 -29.5,-29.13 -38.41,-48.07 -8.85,-18.87 -13.31,-39.51 -13.31,-61.8 0,-19.24 3.3,-37.25 9.83,-54.05 6.6,-16.79 16.12,-31.69 28.64,-44.58 12.64,-12.88 27.24,-22.72 43.85,-29.62 16.55,-6.84 34.01,-10.26 52.4,-10.26 14.59,0 28.46,2.01 41.71,6.11 13.25,4.03 25.89,10.2 37.93,18.44l-6.6 66.33zm48.31 177.35l0 -259.43 61.19 0 0 112.92 85.68 -112.92 73.72 0 -97.84 123.42 105.54 136.01 -74.75 0 -92.35 -119.52 0 119.52 -61.19 0z"/>
   <path class="fil1" d="M494.26 366.42c-97.25,21.59 -169.96,108.34 -169.96,212.09 0,89.71 54.37,166.72 131.95,199.87l0 236.03c-6.39,1.12 -15,-3.23 -30.03,-8.2 -33.75,-12 1.72,0.61 -32.03,-11.38 -33.75,-12 1.72,0.61 -32.04,-11.39 -30.11,-11.46 -37.99,-8.12 -25.22,-44.03 4.19,-11.8 8.39,-23.6 12.58,-35.4 6.8,-18.33 5.48,-29.43 -0.43,-35.73l0.03 -0.05c-19.65,-13.21 -37.87,-28.39 -54.36,-45.25 -7.3,-4.28 -18.32,-3.32 -34.68,6.56 -10.81,6.32 -21.62,12.65 -32.43,18.97 -32.89,19.24 -31.09,10.88 -47.97,-16.56 -18.09,-30.92 0.93,1.58 -17.16,-29.35 -18.09,-30.92 0.92,1.58 -17.16,-29.34 -15.65,-28.16 -23.82,-30.69 9.08,-49.93 10.81,-6.32 21.62,-12.65 32.43,-18.97 17.02,-9.64 23.15,-18.98 22.7,-27.61l0.03 -0.01c-6.41,-22.38 -10.65,-45.68 -12.41,-69.67 -2.83,-7.96 -11.88,-14.32 -30.74,-17.3 -12.34,-2.13 -24.68,-4.25 -37.03,-6.38 -37.55,-6.47 -30.79,-11.71 -26.02,-43.56 6.09,-35.3 -0.31,1.8 5.78,-33.5 6.09,-35.3 -0.31,1.8 5.77,-33.5 6.18,-31.62 1.55,-38.81 39.11,-32.34 12.34,2.13 24.68,4.25 37.03,6.38 19.22,3.59 29.94,0.4 35.14,-6.5l0.01 0c9.72,-21.71 21.62,-42.24 35.42,-61.3 2.94,-7.92 0.11,-18.6 -12.37,-33.01 -8.07,-9.58 -16.13,-19.16 -24.21,-28.74 -24.55,-29.14 -16,-28.79 8.17,-50.08 27.4,-23.08 -1.4,1.17 26,-21.9 27.4,-23.08 -1.39,1.18 26,-21.9 25.09,-20.2 26.2,-28.69 50.75,0.46 8.07,9.58 16.13,19.16 24.21,28.73 12.39,15.13 22.64,19.59 31.06,17.68l0.02 0.03c21.12,-10.24 43.46,-18.39 66.72,-24.17 7.27,-4.21 11.91,-14.2 11.65,-33.13 0,-12.53 0,-25.05 0,-37.57 0,-38.11 6.31,-32.33 38.51,-33.04 35.82,0 -1.83,0 34,0l9.21 0c-2.38,14.33 -1.58,29.1 3.56,42.55l0 76.69c-9.13,30.37 -20.89,62.23 -42.73,85.59 -6.73,7.19 -12.66,13.43 -17.9,19.17z"/>
   <path class="fil3" d="M598.18 267.94l0 -93.09c-6.6,-9.21 -6.36,-24.51 0,-39.28 5.15,-9.26 7.62,-17.52 -0.94,-24.44 -6.59,-5.33 -1.32,-18.26 7.89,-18.26l18.26 0 0.75 0 0.73 0 0.51 0 0.93 0 0.29 0 1.12 0 0.1 0 1.2 0 0.08 0 1.11 0 0.23 0 0.95 0 0.36 0 0.8 0 0.48 0 0.69 0 0.57 0 0.59 0 0.63 0 0.52 0 0.68 0 0.46 0 0.71 0 0.42 0 0.73 0 0.41 0 0.71 0 0.42 0 0.69 0 0.44 0 0.65 0 0.48 0 0.58 0 0.54 0 0.51 0 0.62 0 0.41 0 0.71 0 0.3 0 0.82 0 0.17 0 0.96 0 0.03 0 0.97 0 0.13 0 0.84 0 0.3 0 0.65 0 0.48 0 0.45 0 0.68 0 0.25 0 0.9 0 0.03 0 0.92 0 0.2 0 0.71 0 0.45 0 0.47 0 0.7 0 0.21 0 0.91 0 0.05 0 0.86 0 0.32 0 0.58 0 0.61 0 0.3 0 0.9 0 0.01 0 0.92 0 0.27 0 0.65 0 0.58 0 0.36 0 0.88 0 0.06 0 0.95 0 0.24 0 0.72 0 0.54 0 0.43 0 0.85 0 0.13 0 1 0 0.16 0 0.86 0 0.45 0 0.57 0 0.75 0 0.29 0 1.05 0 0.02 0 1.08 0 0.26 0 0.84 0 0.54 0 0.59 0 0.81 0 0.34 0 1.08 0 0.09 0 1.2 0 0.15 0 1.08 0 0.39 0 0.87 0 0.62 0 9.02 0c9.21,0 14.48,12.93 7.89,18.26 -8.56,6.92 -6.09,15.18 -0.93,24.44 6.36,14.76 6.6,30.07 0,39.28l0 93.09c9.31,31.82 23.39,75.71 54.4,108.87 28.49,30.46 39.44,34.77 44.24,82.87l0 569.64 -300.1 0 0 -569.64c4.81,-48.1 15.75,-52.41 44.24,-82.87 31.01,-33.16 45.09,-77.05 54.4,-108.87z"/>
   <path class="fil4" d="M912.14 931.06l55.74 -246.29 4.61 0 101.33 155.32 95.57 -155.32 4.8 0 56.13 246.29 -60.93 0 -22.75 -108.94 -72.06 117.7 -4.3 0 -77.37 -119.33 -23.57 110.57 -57.2 0zm458.22 -75.81l70.54 0 -34.83 -74.68 -35.71 74.68zm-100.49 75.81l136.97 -245.95 4.04 0 133.94 245.95 -67.06 0 -17 -34.7 -108.97 0 -17.38 34.7 -64.53 0zm536.04 -163.07c-11.63,-10.62 -23.38,-18.48 -35.27,-23.64 -11.95,-5.11 -24.46,-7.69 -37.54,-7.69 -22.69,0 -41.27,6.96 -55.68,20.89 -14.48,13.93 -21.68,31.84 -21.68,53.63 0,21.84 7.15,39.53 21.49,53.06 14.29,13.53 32.93,20.33 55.94,20.33 13.59,0 27.11,-2.53 40.64,-7.58 13.53,-5.05 26.99,-12.63 40.45,-22.74l-4.11 63.34c-11.5,6.91 -24.02,12.19 -37.67,15.78 -13.66,3.65 -27.82,5.45 -42.54,5.45 -15.81,0 -30.91,-2.19 -45.45,-6.57 -14.48,-4.38 -27.88,-10.89 -40.08,-19.43 -17.32,-12.07 -30.53,-26.79 -39.76,-44.19 -9.16,-17.35 -13.78,-36.33 -13.78,-56.83 0,-17.69 3.41,-34.26 10.17,-49.7 6.83,-15.44 16.69,-29.14 29.64,-40.99 13.09,-11.85 28.19,-20.89 45.39,-27.24 17.13,-6.29 35.21,-9.43 54.23,-9.43 15.11,0 29.46,1.85 43.18,5.62 13.72,3.7 26.8,9.37 39.25,16.96l-6.83 60.98zm92.64 163.07l0 -238.54 63.33 0 0 87.6 103.54 0 0 -87.6 62.95 0 0 238.54 -62.95 0 0 -100.07 -103.54 0 0 100.07 -63.33 0zm335.03 0l0 -238.54 64.1 0 0 238.54 -64.1 0zm169.31 0l0 -246.29 6.13 0 167.18 139.2 0 -131.45 59.17 0 0 247.64 -5.56 0 -167.76 -139.2 0 130.11 -59.16 0zm336.49 0l0 -238.54 165.35 0 0 49.19 -103.15 0 0 43.13 88.36 0 0 48.85 -88.36 0 0 47.17 104.67 0 0 50.2 -166.87 0zm246.23 -67.39c16.49,8.98 30.52,15.22 42.1,18.87 11.5,3.59 22.75,5.39 33.75,5.39 11.06,0 19.97,-2.19 26.73,-6.51 6.7,-4.32 10.05,-9.88 10.05,-16.68 0,-9.72 -11.95,-20.72 -35.9,-32.85 -3.86,-1.96 -6.83,-3.54 -8.92,-4.6l-18.14 -9.1c-17.64,-8.87 -30.72,-18.93 -39.19,-30.1 -8.53,-11.17 -12.77,-23.86 -12.77,-38.01 0,-19.21 8.16,-34.93 24.47,-47.23 16.24,-12.3 37.29,-18.42 63.08,-18.42 9.55,0 19.85,1.01 30.91,2.98 11.13,1.96 23.45,5.06 37.04,9.21l0 55.87c-12.96,-7.19 -25.22,-12.75 -36.85,-16.68 -11.63,-3.93 -21.49,-5.89 -29.65,-5.89 -9.04,0 -16.12,1.74 -21.3,5.16 -5.18,3.43 -7.78,8.15 -7.78,14.04 0,4.15 1.52,8.03 4.62,11.62 3.09,3.65 7.71,6.91 13.9,9.88l31.48 15.44c26.36,12.98 44.06,24.93 53.16,35.88 9.1,11.01 13.65,23.98 13.65,39.03 0,23.25 -8.92,42.06 -26.74,56.38 -17.88,14.32 -41.53,21.45 -71.04,21.45 -9.98,0 -20.86,-0.96 -32.62,-2.81 -11.69,-1.85 -24.65,-4.77 -38.69,-8.7l-5.37 -63.62z"/>
  </g>
 </g>
</svg>
